<svg width="484" height="372" viewBox="0 0 484 372" xmlns="http://www.w3.org/2000/svg">
    <style>
        path {
            fill: #000000;
        }
        @media ( prefers-color-scheme: dark ) {
            path {
                fill: #FFFFFF;
            }
        }
    </style>
    <path d="M403.799 232.036V47.4621C403.754 35.1419 398.839 23.3406 390.126 14.6278C381.414 5.9154 369.612 1.00078 357.292 0.954949C344.816 0.749232 332.781 5.5569 323.879 14.2962C314.976 23.039 309.955 34.9859 309.932 47.4621V53.4354C281.402 26.2965 244.876 9.0816 205.786 4.34585C166.696 -0.38942 127.119 7.60685 92.9314 27.1537C58.1808 47.6679 30.9619 78.8297 15.3161 116.026C-0.333521 153.227 -3.57521 194.472 6.06278 233.659C16.3369 273.343 39.5983 308.445 72.1352 333.377C104.672 358.31 144.619 371.64 185.614 371.244C226.609 370.848 266.285 356.749 298.332 331.191C310.587 347.576 329.174 358.044 349.54 360.033C369.906 362.021 390.164 355.347 405.36 341.645C420.557 327.942 429.284 308.475 429.402 288.014C429.638 266.471 420.251 245.945 403.802 232.034L403.799 232.036ZM239.364 29.5372L230.831 33.8039C227.562 35.4724 224.82 38.0172 222.907 41.1486C220.995 44.28 219.985 47.8838 219.993 51.5524V70.5813C220.092 77.6174 214.564 83.4456 207.536 83.7246H182.706C178.698 83.7055 174.923 81.8503 172.466 78.6883L167.346 72.1169V72.1207C163.567 67.1722 157.696 64.2655 151.472 64.2655C145.247 64.2655 139.377 67.1722 135.602 72.1207L128.946 81.0807C125.114 86.235 123.049 92.49 123.057 98.9129V116.921C123.065 120.593 121.514 124.098 118.79 126.563L90.7141 152.163C87.0608 155.477 84.8703 160.109 84.6303 165.039C84.3903 169.968 86.1198 174.791 89.4341 178.444L97.1979 186.978H97.2017C99.9827 190.048 103.708 192.098 107.792 192.81C111.872 193.522 116.074 192.852 119.727 190.901L155.223 171.956L155.227 171.96C155.78 171.534 156.549 171.534 157.105 171.96L170.843 186.124C171.128 186.421 171.281 186.821 171.269 187.232C171.281 187.644 171.128 188.044 170.843 188.341L123.228 235.956V235.96C119.178 240.009 117.224 245.697 117.921 251.38C118.622 257.064 121.902 262.108 126.812 265.056L163.849 287.326H163.845C164.371 287.524 164.759 287.974 164.87 288.523L166.066 294.667C166.207 295.193 166.04 295.753 165.64 296.119C165.19 296.378 164.638 296.378 164.188 296.119L113.67 284.854C109.163 283.825 104.439 284.503 100.405 286.759C96.3703 289.014 93.3113 292.682 91.8255 297.056C91.5779 297.807 90.8045 298.252 90.0313 298.081L52.313 289.548L49.3263 285.536C29.212 257.868 18.0767 224.69 17.4175 190.492C16.7622 156.291 26.6213 122.709 45.6614 94.29C64.698 65.8706 92.0047 43.9814 123.882 31.5773C155.76 19.1733 190.678 16.8493 223.922 24.9259C229.214 26.2364 234.36 27.7717 239.366 29.5355L239.364 29.5372ZM72.4524 311.137L86.449 314.124H86.4452C87.7518 314.265 89.0662 314.265 90.3728 314.124C94.228 314.116 97.9918 312.912 101.138 310.684C104.285 308.452 106.666 305.301 107.95 301.667C108.194 300.912 108.971 300.471 109.744 300.642L160.175 312.079V312.075C166.312 313.492 172.75 311.705 177.279 307.332C181.809 302.955 183.82 296.585 182.617 290.403L181.42 284.258H181.424C180.457 279.088 177.359 274.567 172.891 271.801L135.854 249.531V249.527C135.462 249.237 135.229 248.78 135.229 248.289C135.229 247.801 135.462 247.344 135.854 247.055L183.469 199.44V199.436C186.978 195.946 188.947 191.203 188.947 186.254C188.947 181.306 186.978 176.559 183.469 173.069L169.134 160.525C166.319 157.691 162.662 155.843 158.708 155.26C154.757 154.673 150.719 155.386 147.203 157.283L111.706 176.312C111.154 176.738 110.381 176.738 109.828 176.312L102.064 167.778C101.76 167.489 101.588 167.089 101.588 166.67C101.588 166.251 101.76 165.851 102.064 165.561L130.141 139.961H130.137C136.426 134.262 140.023 126.174 140.037 117.687V99.2568C140.041 96.4873 140.94 93.7939 142.597 91.5768L149.253 82.6168C149.778 81.8663 150.639 81.4205 151.557 81.4205C151.557 81.4205 153.093 81.4205 153.862 82.5291L158.982 89.1005H158.978C164.67 96.4376 173.421 100.746 182.704 100.792H207.534C215.5 100.792 223.142 97.626 228.772 91.9955C234.406 86.3613 237.572 78.7196 237.572 70.7539V51.5534C237.572 50.4829 238.163 49.5 239.107 48.9934L260.015 38.3262C279.047 48.2269 295.996 61.6978 309.935 78.0067V191.242C307.672 190.007 305.303 188.979 302.853 188.171L291.25 183.223C288.774 182.198 291.25 178.358 291.76 176.312V176.308C292.374 172.861 292.004 169.31 290.69 166.064C289.375 162.819 287.174 160.011 284.335 157.962L269.486 147.893C266.674 145.958 263.367 144.857 259.954 144.72C256.541 144.587 253.162 145.417 250.202 147.124L210.095 170.164C206.632 172.179 203.924 175.268 202.381 178.967C200.842 182.667 200.552 186.766 201.562 190.644L208.986 219.06C210.266 224.256 213.806 228.606 218.628 230.922C220.251 231.692 224.091 232.629 222.724 234.934C214.19 249.269 191.406 287.413 191.15 288.438C189.459 291.276 188.575 294.518 188.59 297.825V334.69V334.686C188.567 338.442 189.726 342.111 191.901 345.174C194.072 348.237 197.154 350.538 200.708 351.753C202.164 352.286 203.687 352.602 205.23 352.694C181.467 355.898 157.287 353.863 134.392 346.728C111.496 339.593 90.4456 327.531 72.708 311.391L72.4524 311.137ZM309.933 232.033C298.576 241.637 290.344 254.413 286.295 268.726L282.539 272.909H282.542C282.234 272.997 281.91 272.997 281.601 272.909L251.735 269.667C248.059 269.397 244.386 270.238 241.19 272.079C237.998 273.919 235.427 276.677 233.815 279.991L208.215 334.776C208.215 335.286 207.446 335.545 206.592 335.458H206.596C206.116 335.305 205.804 334.848 205.827 334.349V296.803L237.656 242.787C240.216 238.41 240.844 233.168 239.385 228.315C237.93 223.461 234.52 219.427 229.976 217.187L226.219 215.309L225.537 214.456L217.945 186.124C217.8 185.587 218.048 185.019 218.543 184.76L258.734 161.888H259.415L274.265 171.956V171.96C274.738 172.273 274.947 172.867 274.776 173.408L274.094 175.114C272.307 179.606 272.384 184.627 274.304 189.061C276.224 193.499 279.835 196.985 284.334 198.753L309.934 209.846L309.933 232.033ZM212.224 351.499C216.81 349.903 220.582 346.562 222.719 342.2L248.319 287.415C248.551 286.973 249.016 286.707 249.515 286.733L279.382 289.975C280.685 290.112 282.003 290.112 283.306 289.975C283.576 298.977 285.485 307.853 288.94 316.173C266.975 334.387 240.712 346.669 212.65 351.841L212.224 351.499ZM356.52 342.966C340.81 342.856 325.868 336.136 315.362 324.452C304.852 312.772 299.746 297.206 301.297 281.568C302.844 265.93 310.901 251.667 323.499 242.273C325.648 240.661 326.913 238.132 326.913 235.446V47.4592C326.935 39.6421 330.055 32.1567 335.591 26.6359C341.122 21.1159 348.619 18.0188 356.436 18.0188C364.379 17.8359 372.06 20.8492 377.754 26.3883C383.453 31.9235 386.687 39.516 386.729 47.4583V236.216C386.748 238.917 388.047 241.446 390.226 243.042C402.912 252.372 411.053 266.631 412.645 282.296C414.237 297.96 409.125 313.564 398.58 325.256C388.032 336.943 373.034 343.625 357.289 343.648L356.52 342.966ZM380.669 254.391H380.672C376.01 251.05 370.684 248.753 365.053 247.648V131.166C365.053 126.453 361.236 122.632 356.52 122.632C351.807 122.632 347.986 126.453 347.986 131.166V248.331C342.356 249.424 337.03 251.725 332.371 255.07C323.076 261.9 317.106 272.346 315.94 283.82C314.774 295.298 318.523 306.73 326.256 315.291C333.989 323.847 344.984 328.731 356.519 328.731C368.054 328.731 379.052 323.847 386.785 315.291C394.519 306.731 398.267 295.298 397.101 283.82C395.936 272.345 389.966 261.899 380.67 255.07L380.669 254.391ZM356.52 311.054C349.88 310.974 343.575 308.113 339.141 303.169C334.707 298.224 332.551 291.645 333.194 285.031C333.834 278.422 337.221 272.383 342.528 268.388C347.271 264.921 353.129 263.34 358.973 263.946C364.817 264.552 370.226 267.306 374.158 271.675C378.085 276.041 380.257 281.71 380.245 287.587C380.359 293.877 377.967 299.957 373.598 304.486C369.228 309.016 363.24 311.621 356.946 311.736L356.52 311.054ZM412.33 77.753C412.33 73.0406 416.151 69.2197 420.863 69.2197H450.814C455.53 69.2197 459.347 73.0406 459.347 77.753C459.347 82.4653 455.53 86.2863 450.814 86.2863H420.863C416.25 86.2901 412.467 82.6216 412.33 78.0082V77.753ZM483.412 124.26C483.412 126.523 482.513 128.694 480.913 130.294C479.313 131.894 477.141 132.793 474.879 132.793H420.863C416.151 132.793 412.33 128.972 412.33 124.26C412.33 119.548 416.151 115.727 420.863 115.727H474.879C477.187 115.727 479.397 116.66 481.004 118.317C482.612 119.971 483.48 122.211 483.412 124.515V124.26ZM483.412 214.797C483.412 217.06 482.513 219.232 480.913 220.832C479.313 222.432 477.141 223.331 474.879 223.331H420.863C416.151 223.331 412.33 219.514 412.33 214.797C412.33 210.085 416.151 206.264 420.863 206.264H474.879C477.172 206.264 479.37 207.186 480.974 208.824C482.581 210.462 483.458 212.675 483.412 214.969V214.797ZM412.33 169.742C412.33 165.03 416.151 161.209 420.863 161.209H450.814C455.53 161.209 459.347 165.03 459.347 169.742C459.347 174.455 455.53 178.276 450.814 178.276H420.863C416.151 178.276 412.33 174.455 412.33 169.742ZM348.33 93.8795V78.0095C348.33 73.2971 352.151 69.4761 356.863 69.4761C361.575 69.4761 365.396 73.2971 365.396 78.0095V93.8834C365.396 98.5958 361.575 102.417 356.863 102.417C352.151 102.417 348.33 98.5958 348.33 93.8834V93.8795Z"/>
</svg>
